HIERARCHY
ROOT Hips
{
	OFFSET 0.000000 88.474243 0.000000
	CHANNELS 6 Xposition Yposition Zposition Zrotation Yrotation Xrotation 
	JOINT Hips_Spine
	{
		OFFSET 0.000000 0.000000 0.000000
		CHANNELS 3 Zrotation Yrotation Xrotation
		JOINT Spine
		{
			OFFSET 0.005100 8.711998 -0.691000
			CHANNELS 3 Zrotation Yrotation Xrotation
			JOINT Spine1
			{
				OFFSET -0.009200 8.660301 -1.275000
				CHANNELS 3 Zrotation Yrotation Xrotation
				JOINT Spine2
				{
					OFFSET 0.006300 9.852501 -1.857000
					CHANNELS 3 Zrotation Yrotation Xrotation
					JOINT Spine2_Neck
					{
						OFFSET 0.000000 0.000000 0.000000
						CHANNELS 3 Zrotation Yrotation Xrotation
						JOINT Neck
						{
							OFFSET 0.016300 11.420799 -0.263300
							CHANNELS 3 Zrotation Yrotation Xrotation
							End Site #name: Head
							{
								OFFSET -0.019200 9.262405 2.362500
							}
						}
					}
					JOINT Spine2_LeftShoulder
					{
						OFFSET 0.000000 0.000000 0.000000
						CHANNELS 3 Zrotation Yrotation Xrotation
						JOINT LeftShoulder
						{
							OFFSET 5.616900 6.732201 -0.345700
							CHANNELS 3 Zrotation Yrotation Xrotation
							JOINT LeftArm
							{
								OFFSET 10.664888 -0.183372 -2.440700
								CHANNELS 3 Zrotation Yrotation Xrotation
								JOINT LeftForeArm
								{
									OFFSET 27.459126 0.000000 0.000000
									CHANNELS 3 Zrotation Yrotation Xrotation
									End Site #name: LeftHand
									{
										OFFSET 21.306858 0.000000 0.000000
									}
								}
							}
						}
					}
					JOINT Spine2_RightShoulder
					{
						OFFSET 0.000000 0.000000 0.000000
						CHANNELS 3 Zrotation Yrotation Xrotation
						JOINT RightShoulder
						{
							OFFSET -5.580300 6.737503 -0.344400
							CHANNELS 3 Zrotation Yrotation Xrotation
							JOINT RightArm
							{
								OFFSET -10.679335 -0.188484 -2.383900
								CHANNELS 3 Zrotation Yrotation Xrotation
								JOINT RightForeArm
								{
									OFFSET -27.503529 0.000000 0.000000
									CHANNELS 3 Zrotation Yrotation Xrotation
									End Site #name: RightHand
									{
										OFFSET -21.306808 0.000000 0.000000
									}
								}
							}
						}
					}
				}
			}
		}
	}
	JOINT Hips_LeftUpLeg
	{
		OFFSET 0.000000 0.000000 0.000000
		CHANNELS 3 Zrotation Yrotation Xrotation
		JOINT LeftUpLeg
		{
			OFFSET 6.857700 -6.739601 0.312100
			CHANNELS 3 Zrotation Yrotation Xrotation
			JOINT LeftLeg
			{
				OFFSET -0.367590 -34.731552 -4.572400
				CHANNELS 3 Zrotation Yrotation Xrotation
				End Site #name: LeftFoot
				{
					OFFSET 0.367590 -34.656704 -6.067400
				}
			}
		}
	}
	JOINT Hips_RightUpLeg
	{
		OFFSET 0.000000 0.000000 0.000000
		CHANNELS 3 Zrotation Yrotation Xrotation
		JOINT RightUpLeg
		{
			OFFSET -6.876100 -6.733299 0.301000
			CHANNELS 3 Zrotation Yrotation Xrotation
			JOINT RightLeg
			{
				OFFSET 0.347353 -34.795158 -4.515900
				CHANNELS 3 Zrotation Yrotation Xrotation
				End Site #name: RightFoot
				{
					OFFSET -0.347353 -34.589367 -6.070300
				}
			}
		}
	}
}
MOTION
Frames: 6
Frame Time: 0.041667
5.631120 0.545736 1.388993 -4.036636 -9.684613 -1.300861 -0.000000 0.000000 -0.000000 -0.240868 0.687781 4.101355 -0.852611 1.318787 8.813102 0.000000 0.000000 0.000000 -0.784137 1.257276 8.785874 1.533595 -2.202780 2.839206 -0.900275 1.325870 8.642570 3.291483 0.940228 0.512250 -73.994578 -11.175807 26.112349 179.131616 -86.617634 -179.318972 -0.843077 1.232267 8.688344 -3.720514 -2.197076 0.960432 79.549929 -9.823139 4.357146 -176.153045 83.395687 -176.523681 -0.000000 -0.000000 0.000000 1.411673 1.214958 -20.363067 -1.103643 0.154896 29.507536 0.000000 0.000000 -0.000000 -8.134539 0.354819 -15.543947 0.292975 -0.804158 18.616338 
5.822489 0.553381 1.407698 -4.014910 -10.047296 -1.234232 -0.000000 0.000000 -0.000000 -0.243536 0.691207 4.075563 -0.841057 1.310693 8.793370 0.000000 0.000000 0.000000 -0.765917 1.251476 8.739754 1.331425 -2.458921 2.860304 -0.880298 1.333192 8.588711 3.252144 0.886226 0.516812 -74.029835 -10.763994 26.032758 178.729913 -86.861629 -178.903073 -0.831876 1.221261 8.622653 -3.679173 -2.123510 0.950151 79.647341 -9.908500 4.173617 -176.216608 83.285826 -176.578886 -0.000000 -0.000000 -0.000000 1.194347 1.218655 -20.221680 -1.115714 0.145609 29.176233 0.000000 0.000000 -0.000000 -8.290589 0.490291 -15.657102 0.296177 -0.800252 18.388994 
6.000310 0.558707 1.424813 -3.980247 -10.453055 -1.163190 -0.000000 0.000000 -0.000000 -0.247668 0.701664 4.072224 -0.826716 1.302246 8.768298 0.000000 0.000000 0.000000 -0.746234 1.249805 8.686335 1.157162 -2.635695 2.871739 -0.860174 1.341528 8.535446 3.208109 0.839404 0.520590 -74.070897 -10.356352 25.958598 178.251312 -87.093247 -178.410857 -0.823016 1.212482 8.554582 -3.654869 -2.084963 0.941270 79.730244 -9.984367 4.017155 -176.261515 83.195089 -176.621971 -0.000000 -0.000000 -0.000000 0.982977 1.198446 -20.098371 -1.114632 0.148293 28.860575 0.000000 0.000000 -0.000000 -8.458868 0.591099 -15.771633 0.309984 -0.804191 18.190110 
6.161461 0.561498 1.438917 -3.933848 -10.843862 -1.106188 -0.000000 0.000000 -0.000000 -0.250341 0.715482 4.078019 -0.814571 1.289782 8.722326 0.000000 0.000000 0.000000 -0.725850 1.246291 8.615092 1.031927 -2.749892 2.895552 -0.839773 1.348697 8.486865 3.174656 0.802472 0.553586 -74.126805 -9.971148 25.894312 177.792112 -87.297222 -177.938274 -0.815783 1.205506 8.488360 -3.631973 -2.056956 0.931914 79.785924 -10.038840 3.904173 -176.287863 83.143417 -176.652927 -0.000000 -0.000000 -0.000000 0.794017 1.164400 -19.985870 -1.106488 0.165260 28.581866 0.000000 0.000000 -0.000000 -8.637643 0.660783 -15.866536 0.331352 -0.819536 18.014221 
6.302708 0.561406 1.448036 -3.880826 -11.208985 -1.056427 -0.000000 0.000000 -0.000000 -0.250131 0.727253 4.083511 -0.802430 1.276721 8.670786 0.000000 0.000000 0.000000 -0.705037 1.244764 8.548885 0.932928 -2.834255 2.905904 -0.821620 1.356519 8.443666 3.146803 0.781297 0.579776 -74.175681 -9.636564 25.830659 177.942833 -87.465282 -178.082840 -0.808946 1.200770 8.428101 -3.595708 -2.049012 0.918125 79.812264 -10.098389 3.813104 -176.309412 83.100116 -176.684937 -0.000000 -0.000000 -0.000000 0.632519 1.133898 -19.885157 -1.096451 0.193137 28.347657 -0.000000 0.000000 -0.000000 -8.806578 0.723296 -15.958251 0.351612 -0.832515 17.890667 
6.419886 0.559221 1.451439 -3.820500 -11.534879 -1.008170 -0.000000 0.000000 -0.000000 -0.245941 0.739396 4.097415 -0.795454 1.267601 8.620401 0.000000 0.000000 0.000000 -0.686730 1.245589 8.490599 0.860121 -2.890045 2.907702 -0.804961 1.364286 8.411266 3.135197 0.775549 0.587704 -74.230225 -9.365074 25.753048 177.927991 -87.625086 -178.062079 -0.803389 1.197327 8.380003 -3.551321 -2.031405 0.908841 79.805817 -10.156217 3.760560 -176.317870 83.073389 -176.706637 -0.000000 -0.000000 -0.000000 0.502435 1.107209 -19.816444 -1.081787 0.236645 28.169639 -0.000000 0.000000 -0.000000 -8.947261 0.776618 -16.050785 0.354094 -0.841331 17.815002 
